<svg xmlns="http://www.w3.org/2000/svg" viewBox="0 0 1200 420">
  <defs>
    <linearGradient id="bg" x1="0" x2="1" y1="0" y2="1"><stop offset="0" stop-color="#0b2a4a"/><stop offset="1" stop-color="#174d80"/></linearGradient>
    <pattern id="grid" width="36" height="36" patternUnits="userSpaceOnUse"><path d="M36 0H0V36" fill="none" stroke="#ffffff" stroke-opacity=".08"/></pattern>
  </defs>
  <rect width="1200" height="420" rx="34" fill="url(#bg)"/>
  <rect width="1200" height="420" rx="34" fill="url(#grid)"/>
  <path d="M52 298c95-78 168-108 236-77 72 32 124-11 202-111 93 128 192 157 316 86 98-56 187-27 342 72" fill="none" stroke="#f1c066" stroke-width="13" stroke-linecap="round" opacity=".95"/>
  <path d="M80 338c140-58 247-71 346-38 128 43 232-4 336-84 106-81 209-77 358-6" fill="none" stroke="#ffffff" stroke-width="7" stroke-linecap="round" opacity=".68"/>
  <g transform="translate(92 68)">
    <circle cx="86" cy="86" r="78" fill="none" stroke="#f1c066" stroke-width="10"/>
    <path d="M86 24v126M40 86h92" stroke="#fff" stroke-width="8" stroke-linecap="round"/>
    <path d="M86 35L72 98l63-23z" fill="#f1c066" opacity=".95"/>
    <text x="86" y="190" text-anchor="middle" fill="#fff" font-size="22" font-family="Arial" font-weight="700">TOPOGRAFÍA</text>
  </g>
  <text x="330" y="100" fill="#fff" font-family="Arial, sans-serif" font-weight="800" font-size="56">Practicas de Topografia</text>
  <text x="330" y="154" fill="#dcecff" font-family="Arial, sans-serif" font-size="28">Aplicativo institucional para campo y gabinete</text>
  <text x="330" y="204" fill="#f1c066" font-family="Arial, sans-serif" font-weight="700" font-size="25">Jesus Alfonso Barrante Flores</text>
  <text x="330" y="260" fill="#ffffff" font-family="Arial, sans-serif" font-size="21">Cinta · Brújula · Poligonal · Nivelación · Taquimetría · Estación total · Perfil tipo guitarra</text>
</svg>