<svg xmlns="http://www.w3.org/2000/svg" viewBox="0 0 512 512" role="img" aria-label="Practicas de Topografia">
  <defs>
    <linearGradient id="g" x1="0" x2="1" y1="0" y2="1"><stop offset="0" stop-color="#0b2a4a"/><stop offset="1" stop-color="#174d80"/></linearGradient>
    <linearGradient id="gold" x1="0" x2="1"><stop offset="0" stop-color="#f1c066"/><stop offset="1" stop-color="#d99a28"/></linearGradient>
  </defs>
  <rect width="512" height="512" rx="108" fill="url(#g)"/>
  <circle cx="256" cy="256" r="178" fill="none" stroke="url(#gold)" stroke-width="18"/>
  <path d="M116 328c52-60 96-80 140-62 42 17 76 0 140-68" fill="none" stroke="#ffffff" stroke-width="18" stroke-linecap="round"/>
  <path d="M126 374c62-52 112-70 158-50 39 17 70 3 108-34" fill="none" stroke="#cfe8ff" stroke-width="10" stroke-linecap="round" opacity=".85"/>
  <path d="M256 112v266" stroke="#f5f9ff" stroke-width="15" stroke-linecap="round"/>
  <path d="M198 252h116M214 292h84" stroke="#f5f9ff" stroke-width="13" stroke-linecap="round"/>
  <path d="M176 398l80-196 80 196" fill="none" stroke="url(#gold)" stroke-width="16" stroke-linecap="round" stroke-linejoin="round"/>
  <circle cx="256" cy="202" r="23" fill="#fff" stroke="#d99a28" stroke-width="8"/>
  <text x="256" y="462" text-anchor="middle" font-family="Arial, sans-serif" font-weight="800" font-size="44" fill="#fff">PT</text>
</svg>